<svg width="86" height="86" viewBox="0 0 86 86" fill="none" xmlns="http://www.w3.org/2000/svg">
<path d="M43.0003 7.16675C23.2418 7.16675 7.16699 23.2416 7.16699 43.0001C7.16699 62.7586 23.2418 78.8334 43.0003 78.8334C62.7588 78.8334 78.8337 62.7586 78.8337 43.0001C78.8337 23.2416 62.7588 7.16675 43.0003 7.16675ZM43.0003 71.6667C27.1942 71.6667 14.3337 58.8062 14.3337 43.0001C14.3337 27.194 27.1942 14.3334 43.0003 14.3334C58.8064 14.3334 71.667 27.194 71.667 43.0001C71.667 58.8062 58.8064 71.6667 43.0003 71.6667Z" fill="#EFAC00"/>
<path d="M46.3372 26.4V60H41.5852V30.576H34.0012V26.4H46.3372Z" fill="white"/>
</svg>
